Coordinates
version=1
nRows=5
nColumns=46
inDegrees=yes

Units are S.I. units (second, meters, Newtons, ...)
Angles are in degrees.

endheader
time	pelvis_tilt	pelvis_list	pelvis_rotation	pelvis_tx	pelvis_ty	pelvis_tz	bb_angle	bb_tx	bb_ty	bb_tz	hip_flexion_r	hip_adduction_r	hip_rotation_r	knee_angle_r	knee_angle_r_beta	ankle_angle_r	subtalar_angle_r	mtp_angle_r	crank_angle_r	hip_flexion_l	hip_adduction_l	hip_rotation_l	knee_angle_l	knee_angle_l_beta	ankle_angle_l	subtalar_angle_l	mtp_angle_l	crank_angle_l	lumbar_extension	lumbar_bending	lumbar_rotation	arm_flex_r	arm_add_r	arm_rot_r	elbow_flex_r	pro_sup_r	wrist_flex_r	wrist_dev_r	arm_flex_l	arm_add_l	arm_rot_l	elbow_flex_l	pro_sup_l	wrist_flex_l	wrist_dev_l
      7.50500000	    -26.75425300	      7.51988646	     12.52402388	      0.39421956	      1.08126668	     -0.23627329	      0.00000000	      0.50000000	      0.00000000	      0.25000000	     30.86135608	    -15.98018377	     -2.57108309	     35.90927022	      0.62673500	    -21.11630558	     -3.59252819	      0.00000000	      0.00000000	     79.50479028	      4.21313249	     -1.25140999	    103.25950395	      1.80221833	     16.60335344	      4.99661022	      0.00000000	      0.00000000	    -45.91937742	     -9.15290621	    -15.45517588	     60.55375664	     -2.59539694	     28.86612134	     23.56270521	     47.05843975	      0.00000000	      0.00000000	     51.36125187	    -13.30310797	     22.12153368	     65.05608023	     48.87384067	      0.00000000	      0.00000000
      7.51000000	    -26.57615834	      7.00965067	     12.81921116	      0.39429958	      1.08256167	     -0.23610134	      0.00000000	      0.50000000	      0.00000000	      0.25000000	     31.06831770	    -15.54368901	     -2.62449873	     37.95391152	      0.66242072	    -20.85665495	     -3.91883006	      0.00000000	      0.00000000	     78.84383219	      4.30068948	     -1.04733424	    101.36714795	      1.76919049	     17.45000303	      4.62757275	      0.00000000	      0.00000000	    -46.05596243	     -9.11578469	    -14.57717180	     60.13932803	     -2.85788397	     26.03895372	     23.53968513	     46.27058056	      0.00000000	      0.00000000	     52.18513949	    -11.29058779	     21.84695137	     63.09318990	     48.02739453	      0.00000000	      0.00000000
      7.51500000	    -26.27990976	      6.30616641	     12.96729391	      0.39445110	      1.08380436	     -0.23568646	      0.00000000	      0.50000000	      0.00000000	      0.25000000	     31.27781076	    -14.81889261	     -2.61778246	     40.06271669	      0.69922631	    -20.79873792	     -4.24668642	      0.00000000	      0.00000000	     77.99634849	      4.19838136	     -0.59711031	     99.40573249	      1.73495733	     18.32371461	      4.20570779	      0.00000000	      0.00000000	    -46.30404962	     -8.75485104	    -14.24330933	     60.17544446	     -2.86159822	     26.00097552	     23.44569246	     46.25795544	      0.00000000	      0.00000000	     52.19337697	    -11.07041315	     21.81616963	     63.17550937	     48.03591213	      0.00000000	      0.00000000
      7.52000000	    -26.05008698	      5.67135389	     13.09252033	      0.39462862	      1.08486234	     -0.23560844	      0.00000000	      0.50000000	      0.00000000	      0.25000000	     31.65624710	    -14.21539685	     -2.67682465	     42.35484194	      0.73923145	    -20.47346460	     -4.72777592	      0.00000000	      0.00000000	     77.05778079	      4.10754902	     -0.29235657	     97.28969222	      1.69802546	     19.23877116	      3.67403950	      0.00000000	      0.00000000	    -46.47036115	     -8.49074880	    -13.87842863	     60.36685620	     -3.07630738	     25.88728757	     23.22243481	     46.21288873	      0.00000000	      0.00000000	     52.19354295	    -10.64529178	     21.64593489	     63.26108317	     48.02905623	      0.00000000	      0.00000000
      7.52500000	    -25.83595177	      5.07159925	     13.17436250	      0.39465201	      1.08595000	     -0.23544053	      0.00000000	      0.50000000	      0.00000000	      0.25000000	     32.13502767	    -13.61865258	     -2.61154434	     44.70223120	      0.78020112	    -20.17880471	     -4.90809515	      0.00000000	      0.00000000	     76.05326388	      3.90841047	     -0.12746534	     94.96197878	      1.65739919	     19.77893438	      3.00450649	      0.00000000	      0.00000000	    -46.57351339	     -8.27503141	    -13.37859393	     60.78238758	     -3.02206516	     25.68957866	     22.04009168	     46.08963183	      0.00000000	      0.00000000	     52.26100790	     -9.37146365	     20.33434904	     62.61973313	     47.76424971	      0.00000000	      0.00000000
